<?xml version="1.0"?>
<svg xmlns="http://www.w3.org/2000/svg" viewBox="0 0 26 26" enable-background="new 0 0 26 26">
    <path d="M 7 3 C 4.8 3 3 4.8 3 7 L 3 19 C 3 21.2 4.8 23 7 23 L 19 23 C 21.2 23 23 21.2 23 19 L 23 7 C 23 4.8 21.2 3 19 3 L 7 3 z M 9.8125 6.1875 C 10.3125 6.1875 10.7 6.30625 11 6.40625 C 11.4 6.60625 11.7 6.8 12 7 C 12.2 7.2 12.4 7.50625 12.5 7.90625 C 12.6 8.20625 12.6875 8.6 12.6875 9 L 12.6875 9.6875 C 12.6875 10.0875 12.6 10.3875 12.5 10.6875 C 12.4 10.9875 12.2 11.29375 12 11.59375 C 11.8 11.89375 11.49375 11.9875 11.09375 12.1875 C 10.69375 12.2875 10.30625 12.40625 9.90625 12.40625 C 9.40625 12.40625 8.9875 12.2875 8.6875 12.1875 C 8.2875 11.9875 7.9875 11.79375 7.6875 11.59375 C 7.4875 11.39375 7.2875 11.0875 7.1875 10.6875 C 7.0875 10.2875 7 9.9875 7 9.6875 L 7 9 C 7 8.6 7.0875 8.30625 7.1875 7.90625 C 7.2875 7.50625 7.4875 7.3 7.6875 7 C 7.9875 6.8 8.29375 6.6 8.59375 6.5 C 8.99375 6.3 9.4125 6.1875 9.8125 6.1875 z M 15.5 7.59375 L 16.8125 8.3125 L 10.40625 18.59375 L 9.09375 17.90625 L 15.5 7.59375 z M 9.8125 7.6875 C 9.6125 7.6875 9.5125 7.7125 9.3125 7.8125 L 9 8.09375 C 8.9 8.19375 8.8125 8.4 8.8125 8.5 C 8.8125 8.6 8.6875 8.8 8.6875 9 L 8.6875 9.6875 C 8.6875 9.8875 8.7125 9.9875 8.8125 10.1875 C 8.8125 10.2875 8.9 10.49375 9 10.59375 C 9.1 10.69375 9.20625 10.80625 9.40625 10.90625 C 9.50625 11.00625 9.70625 11 9.90625 11 C 10.00625 10.9 10.2125 10.8125 10.3125 10.8125 C 10.4125 10.7125 10.59375 10.6 10.59375 10.5 C 10.69375 10.4 10.8125 10.29375 10.8125 10.09375 C 10.8125 9.99375 10.90625 9.79375 10.90625 9.59375 L 10.90625 9 C 10.90625 8.8 10.9125 8.7 10.8125 8.5 C 10.8125 8.4 10.69375 8.19375 10.59375 8.09375 L 10.3125 7.8125 C 10.2125 7.8125 10.0125 7.6875 9.8125 7.6875 z M 16.1875 13.6875 C 16.6875 13.6875 17.10625 13.80625 17.40625 13.90625 C 17.80625 14.00625 18.1125 14.2 18.3125 14.5 C 18.5125 14.7 18.7125 15.00625 18.8125 15.40625 C 18.9125 15.70625 19 16.10625 19 16.40625 L 19 17.09375 C 19 17.49375 18.9125 17.79375 18.8125 18.09375 C 18.7125 18.39375 18.5125 18.7 18.3125 19 C 18.1125 19.3 17.80625 19.39375 17.40625 19.59375 C 17.00625 19.69375 16.5875 19.8125 16.1875 19.8125 C 15.6875 19.8125 15.3 19.69375 15 19.59375 C 14.6 19.49375 14.29375 19.3 14.09375 19 C 13.89375 18.7 13.7 18.49375 13.5 18.09375 C 13.3 17.69375 13.3125 17.39375 13.3125 17.09375 L 13.3125 16.40625 C 13.3125 16.00625 13.4 15.70625 13.5 15.40625 C 13.6 15.10625 13.79375 14.8 14.09375 14.5 C 14.29375 14.3 14.6 14.10625 15 13.90625 C 15.4 13.80625 15.7875 13.6875 16.1875 13.6875 z M 16.09375 15.09375 C 15.89375 15.09375 15.69375 15.0875 15.59375 15.1875 C 15.49375 15.2875 15.2875 15.4 15.1875 15.5 C 15.0875 15.6 15 15.70625 15 15.90625 C 15 16.00625 14.90625 16.20625 14.90625 16.40625 L 14.90625 17.09375 C 14.90625 17.29375 14.9 17.39375 15 17.59375 C 15.1 17.69375 15.0875 17.9 15.1875 18 C 15.2875 18.1 15.39375 18.2125 15.59375 18.3125 C 15.69375 18.4125 15.89375 18.40625 16.09375 18.40625 C 16.29375 18.40625 16.49375 18.4125 16.59375 18.3125 C 16.69375 18.2125 16.90625 18.1 16.90625 18 C 17.00625 17.9 16.99375 17.79375 17.09375 17.59375 L 17.09375 17.09375 L 17.09375 16.40625 C 17.09375 16.20625 17.1 16.10625 17 15.90625 C 17.1 15.80625 17.1 15.6 17 15.5 C 16.9 15.4 16.79375 15.2875 16.59375 15.1875 C 16.49375 15.0875 16.29375 15.09375 16.09375 15.09375 z"/>
</svg>
